PathFileType	4	(X/Y/Z)	C:\Users\Basilio\Documents\Thesis Gigler\squatting_fais\c3dfiles\041\SJ_pre1\markers_experimental.trc
DataRate	CameraRate	NumFrames	NumMarkers	Units	OrigDataRate	OrigDataStartFrame	OrigNumFrames
200.000000	200.000000	4	62	mm	200.000000	952	1270
Frame#	Time	FHD			LBHD			RBHD			C7			T10			CLAV			LSHO			LUUPA			LMUPA			LDUPA			LLEP			LMEP			LRAD			LUL			LRFIN			RSHO			RUPA1			RMUPA			RDUPA			RLEP			RMEP			RRAD			RUL			RUFIN			LASI			RASI			USACR			LSACR			RSACR			LTHI1			LTHI2			LTHI3			LTHI4			LLFC			LMFC			LTIB1			LTIB2			LTIB3			LTIB4			LLMAL			LMMAL			LHEE			LMT1			LMT2			LMT5			RTHI			RTHI2			RTHI3			RTHI4			RLFC			RMFC			RTIB1			RTIB2			RTIB3			RTIB4			RLMAL			RMMAL			RHEE			RMT1			RMT2			RMT5			*61			
		X1	Y1	Z1	X2	Y2	Z2	X3	Y3	Z3	X4	Y4	Z4	X5	Y5	Z5	X6	Y6	Z6	X7	Y7	Z7	X8	Y8	Z8	X9	Y9	Z9	X10	Y10	Z10	X11	Y11	Z11	X12	Y12	Z12	X13	Y13	Z13	X14	Y14	Z14	X15	Y15	Z15	X16	Y16	Z16	X17	Y17	Z17	X18	Y18	Z18	X19	Y19	Z19	X20	Y20	Z20	X21	Y21	Z21	X22	Y22	Z22	X23	Y23	Z23	X24	Y24	Z24	X25	Y25	Z25	X26	Y26	Z26	X27	Y27	Z27	X28	Y28	Z28	X29	Y29	Z29	X30	Y30	Z30	X31	Y31	Z31	X32	Y32	Z32	X33	Y33	Z33	X34	Y34	Z34	X35	Y35	Z35	X36	Y36	Z36	X37	Y37	Z37	X38	Y38	Z38	X39	Y39	Z39	X40	Y40	Z40	X41	Y41	Z41	X42	Y42	Z42	X43	Y43	Z43	X44	Y44	Z44	X45	Y45	Z45	X46	Y46	Z46	X47	Y47	Z47	X48	Y48	Z48	X49	Y49	Z49	X50	Y50	Z50	X51	Y51	Z51	X52	Y52	Z52	X53	Y53	Z53	X54	Y54	Z54	X55	Y55	Z55	X56	Y56	Z56	X57	Y57	Z57	X58	Y58	Z58	X59	Y59	Z59	X60	Y60	Z60	X61	Y61	Z61	X62	Y62	Z62	

953	4.76	-126.0189285278321	1592.56201171875	-864.6612548828127	-291.2716674804688	1498.601318359375	-940.4915771484377	-266.6027832031251	1495.337646484375	-789.2141113281252	-321.3940734863282	1381.558715820313	-884.8923339843752	-410.656707763672	1075.820068359375	-901.9899902343752	-166.2351531982422	1290.050537109375	-891.3339843750002	-220.4428863525391	1360.639770507813	-1064.738891601563	-302.8457946777344	1248.190063476563	-1210.199340820313	-300.9698181152344	1198.607543945313	-1208.054077148438	-340.1601562500001	1208.290649414063	-1253.5	-367.4137573242188	1169.714721679688	-1280.695434570313	-437.1029357910157	1151.940673828125	-1222.31298828125	-345.7344360351563	963.3711547851565	-1115.8173828125	-343.8021240234376	917.0689086914065	-1176.144897460938	-300.3226013183594	931.3777465820315	-1081.483764648438	-206.7727966308594	1342.574340820313	-713.3809204101564	-300.0371093750001	1209.20361328125	-558.9940795898439	-272.6541442871094	1167.77197265625	-572.1987915039064	-304.3401184082032	1144.444458007813	-529.8272094726564	-317.4187011718751	1096.229614257813	-517.3924560546876	-398.8782653808595	1101.931884765625	-564.3908081054689	-367.4060668945313	922.0036621093752	-698.3082275390626	-323.7047424316407	910.793884277344	-739.9619750976564	-345.6074523925782	867.3245849609377	-648.0246582031251	-271.6486511230469	866.4259033203127	-1020.759338378906	-283.1903381347657	849.0884399414065	-805.7581176757815	-444.8169860839845	960.3603515625002	-914.0484619140627	-462.3668823242189	936.6373291015627	-943.2291259765627	-469.408660888672	935.4868774414065	-888.858337402344	-335.8118896484376	679.9002075195314	-1125.2734375	-269.5864868164063	630.1932373046876	-1142.17919921875	-227.6693115234376	651.3776855468751	-1135.776489257813	-267.0532226562501	567.3306884765626	-1134.98095703125	-171.7218933105469	437.2448730468751	-1161.488891601563	-153.544921875	399.7588806152345	-1052.623901367188	-223.9355621337891	252.6179199218751	-1131.731201171875	-291.7634582519532	248.8482208251954	-1194.117919921875	-259.6649475097657	225.2497863769532	-1170.910766601563	-299.8321838378907	154.9102783203125	-1147.6005859375	-401.5611267089845	102.8693313598633	-1193.651245117188	-360.5223388671876	97.74234771728518	-1111.956665039063	-467.2674560546876	54.48334884643556	-1158.838134765625	-249.8866729736329	57.24806594848634	-1151.11181640625	-246.822250366211	57.29253005981447	-1195.567993164063	-291.7569274902344	34.08296203613282	-1248.6337890625	-298.4401550292969	623.0133666992189	-712.7921142578126	-238.5216827392579	597.0675048828126	-700.4624023437501	-210.0366363525391	613.9480590820314	-704.5595092773439	-219.9721221923829	513.3983154296876	-710.0509643554689	-170.144760131836	422.3164978027345	-692.7580566406251	-151.1921997070313	394.4703979492189	-804.0906982421877	-210.4162750244141	263.9125366210938	-694.9239501953126	-322.1641235351563	241.3333129882813	-675.6587524414064	-281.9942016601563	216.5550231933594	-679.4476928710939	-290.1116027832032	164.514892578125	-706.3778076171876	-398.8462219238282	94.49391174316408	-685.1062011718751	-367.8320312500001	96.15773773193362	-766.6253051757814	-465.8136291503907	50.42383956909181	-732.0183715820314	-245.8344421386719	50.85178756713869	-723.7204589843751	-248.2779846191407	55.10768127441408	-671.7885131835939	-296.0432434082032	37.15662384033204	-624.4078369140626	-4217.308593750001	853.2429199218752	-3944.754638671876	
954	4.765	-126.5163879394532	1592.825927734375	-864.0013427734377	-291.9548339843751	1498.97265625	-940.4102783203127	-267.7189636230469	1495.832153320313	-789.1680908203127	-322.1882324218751	1381.87890625	-884.7688598632815	-410.8225402832032	1076.245483398438	-902.5793457031252	-166.0792694091797	1291.10546875	-891.1582031250002	-221.1883087158204	1361.432861328125	-1064.558349609375	-304.1628417968751	1248.734252929688	-1209.805297851563	-301.4874267578126	1199.073608398438	-1207.918212890625	-341.1791992187501	1208.619140625	-1253.035888671875	-368.1824340820313	1169.788696289063	-1280.284545898438	-437.3283996582032	1151.438842773438	-1221.615844726563	-345.0245361328126	963.1448974609377	-1116.069213867188	-342.9741210937501	916.8725585937502	-1176.197387695313	-299.9923095703126	931.1798095703127	-1081.465454101563	-208.1194458007813	1343.087890625	-712.9346923828126	-301.8159179687501	1209.27099609375	-559.3214721679689	-274.1214904785157	1167.877807617188	-572.4402465820314	-306.2568054199219	1144.32421875	-530.0513305664064	-318.8686828613282	1096.443725585938	-517.8462524414064	-400.1099548339845	1101.690551757813	-565.3873291015626	-367.6260070800782	921.8452758789065	-699.0227050781251	-323.7996520996094	911.0196533203127	-740.2775268554689	-345.8124694824219	867.127136230469	-648.6819458007814	-271.6279907226563	866.1986083984377	-1020.645446777344	-282.7862854003907	849.6370849609377	-806.4368286132815	-444.5270385742189	960.448181152344	-914.3753662109377	-462.2172241210939	937.0415039062502	-943.636169433594	-469.5596923828126	935.8729248046877	-889.3509521484377	-335.4357299804688	680.6913452148439	-1125.353759765625	-268.8249816894532	631.2036743164064	-1141.92041015625	-227.5538787841797	652.5761718750001	-1135.082397460938	-266.2268066406251	568.2299804687501	-1135.146728515625	-171.3193359375	436.8596801757814	-1160.809692382813	-153.55517578125	399.4192810058595	-1051.982177734375	-224.0232238769532	252.1685943603516	-1130.648559570313	-291.4784545898438	248.6067504882813	-1193.759399414063	-259.6015930175782	225.1259307861329	-1170.091674804688	-299.7770385742188	154.9181518554688	-1147.142700195313	-401.492889404297	103.011344909668	-1193.35791015625	-360.4672546386719	97.66225433349612	-1111.662963867188	-467.2356567382814	54.60438156127931	-1158.649780273438	-249.7767639160157	56.97166061401369	-1150.938720703125	-246.7543334960938	57.37734222412111	-1195.404541015625	-291.6919860839844	34.23240661621094	-1248.514282226563	-298.1913452148438	624.5360107421876	-712.1413574218751	-237.9365844726563	598.6662597656251	-700.9846801757814	-209.6382598876954	615.4215698242189	-704.9088745117189	-219.6738739013672	514.8298950195314	-709.1021728515626	-170.4967498779297	422.2904357910157	-692.4437866210939	-151.4180145263672	394.6997375488282	-803.9948730468752	-210.6475067138672	264.3358459472657	-694.8579711914064	-322.3959045410157	241.5393981933594	-675.6300659179689	-282.1875915527344	216.7965087890626	-679.3635864257814	-290.2492675781251	164.8166656494141	-706.3762207031251	-398.7768859863282	94.5463333129883	-685.1638793945314	-367.7715148925782	96.19097900390628	-766.6767578125001	-465.7702941894532	50.511531829834	-732.0925903320314	-245.9563903808594	50.79229736328126	-723.7186889648439	-248.8419799804688	55.24906539916994	-672.1331176757814	-296.0186157226563	37.21996307373048	-624.4269409179689	-4217.520507812501	853.223571777344	-3944.731445312501	
955	4.77	-127.9726715087891	1594.397216796875	-864.1881103515627	-292.7831420898438	1499.590942382813	-940.3887939453127	-268.5980834960938	1496.733642578125	-788.9274902343752	-322.8965454101563	1382.577758789063	-884.591003417969	-410.9605407714845	1077.032958984375	-903.1277465820315	-166.7376861572266	1292.402099609375	-891.1113891601565	-221.9600372314454	1362.603637695313	-1064.477905273438	-305.6338806152344	1249.59765625	-1209.321044921875	-301.9355468750001	1200.162963867188	-1207.901977539063	-342.2733459472657	1209.237426757813	-1252.65625	-368.7585449218751	1170.23583984375	-1279.949951171875	-437.4235229492189	1151.196411132813	-1221.020385742188	-344.5093994140626	963.0999755859377	-1116.261108398438	-342.1429443359376	916.9209594726565	-1176.3984375	-300.1251831054688	931.447448730469	-1081.441772460938	-208.937240600586	1343.848999023438	-712.6427612304689	-303.4607849121094	1209.312866210938	-559.9033203125001	-275.4324340820313	1168.337524414063	-572.7876586914064	-307.3986511230469	1144.449096679688	-530.8188476562501	-320.4259643554688	1096.346557617188	-518.4008178710939	-401.2982482910157	1101.732543945313	-566.3964843750001	-367.7446899414063	921.9221191406252	-699.4923706054689	-324.0253295898438	911.490905761719	-740.5341796875001	-345.8268127441407	867.2126464843752	-649.4030151367189	-271.6153564453126	866.2867431640627	-1020.444458007813	-282.7196350097657	850.4335937500002	-807.0474853515627	-444.6937255859376	961.4763793945315	-914.8295898437502	-462.0183410644532	937.5603027343752	-944.037048339844	-464.9185485839845	935.4898071289065	-888.4177246093752	-335.2141418457032	681.9880371093751	-1124.558959960938	-267.4388732910157	631.9190673828126	-1141.545776367188	-227.0874938964844	654.0974121093751	-1134.3525390625	-265.5267333984376	569.4855346679689	-1135.515747070313	-171.7727813720703	436.881805419922	-1160.363891601563	-153.6003875732422	399.3870544433595	-1051.292236328125	-224.1504058837891	252.3455810546876	-1129.996459960938	-291.2153930664063	248.6194152832032	-1193.326171875	-259.3092956542969	225.1432342529297	-1169.406372070313	-299.7135009765626	155.0009155273438	-1146.640258789063	-401.3929138183595	103.1683731079102	-1193.100463867188	-360.3481140136719	97.58184051513675	-1111.450073242188	-467.3486633300782	54.8949432373047	-1158.39501953125	-249.6735382080079	57.00248336791994	-1150.635131835938	-246.6066589355469	57.46002578735353	-1195.274291992188	-291.5846862792969	34.38951110839844	-1248.359497070313	-297.8436279296876	626.1888427734376	-712.1895141601564	-237.5992431640626	600.4628295898439	-700.9893798828126	-209.5573425292969	616.9601440429689	-705.1102294921876	-219.589584350586	516.4173583984376	-708.2119750976564	-171.1877136230469	422.5675354003907	-692.3145141601564	-151.7030487060547	395.0818481445314	-803.8746337890627	-210.9535522460938	264.7051086425782	-694.8231811523439	-322.7119750976563	241.8564758300782	-675.6273193359376	-282.2501220703126	217.0543212890626	-679.2304077148439	-290.3914794921876	165.1090240478516	-706.4956665039064	-398.8367614746095	94.55960083007814	-685.1690063476564	-367.7961120605469	96.3237228393555	-766.6798706054689	-465.7955017089845	50.59133911132814	-732.0399780273439	-245.9154663085938	50.71030807495119	-723.7221679687501	-248.8052520751954	55.3504981994629	-672.1935424804689	-295.9854125976563	37.20500946044923	-624.4586181640626	-4217.166015625001	853.2287597656252	-3944.611816406251	
956	4.775	-128.8445434570313	1595.306396484375	-863.3842773437502	-293.5086059570313	1500.457885742188	-940.263122558594	-269.8596191406251	1497.590087890625	-788.870056152344	-323.4445800781251	1383.468139648438	-884.5428466796877	-411.0084228515626	1077.971923828125	-903.674499511719	-166.9127197265625	1293.488647460938	-891.0604248046877	-222.4465332031251	1363.598754882813	-1064.371826171875	-306.9636840820313	1250.98974609375	-1209.155883789063	-302.4435119628907	1201.2841796875	-1208.046020507813	-343.4255676269532	1210.404541015625	-1252.288818359375	-369.1324157714844	1170.964477539063	-1279.756713867188	-437.4910583496095	1151.136596679688	-1220.378540039063	-343.9299316406251	963.401062011719	-1116.405517578125	-340.8463745117188	917.4995117187502	-1176.808959960938	-299.5146179199219	931.799011230469	-1081.402709960938	-209.9469757080079	1344.823364257813	-712.3518066406251	-304.9668273925782	1209.95458984375	-560.1502075195314	-277.0731811523438	1168.911254882813	-572.8657226562501	-309.1423034667969	1145.0859375	-531.0077514648439	-321.7794799804688	1096.594970703125	-518.9273071289064	-402.5056762695314	1102.0068359375	-567.3748779296876	-367.8234863281251	922.2273559570315	-699.8333740234376	-324.2102355957032	912.1849365234377	-740.6890869140626	-345.7929992675782	867.5959472656252	-649.9024658203126	-271.5046386718751	866.7542724609377	-1020.36328125	-282.5820007324219	851.5106201171877	-807.2099609375002	-444.5272827148439	962.3532714843752	-915.115417480469	-461.8457031250001	938.5667724609377	-944.3416748046877	-464.748504638672	936.5219726562502	-888.6870117187502	-334.7713623046876	683.1155395507814	-1124.597290039063	-267.2868041992188	634.0984497070314	-1141.260620117188	-225.9497222900391	655.3602294921876	-1133.18603515625	-264.7434997558594	570.8494262695314	-1136.322143554688	-171.9827117919922	437.0899658203126	-1159.632690429688	-153.7021636962891	399.6183166503907	-1050.370361328125	-224.3422851562501	252.5755157470704	-1129.395874023438	-291.1510009765626	248.8388061523438	-1193.146362304688	-258.9368896484376	225.1533203125001	-1168.891967773438	-299.6689147949219	155.2050018310547	-1146.34619140625	-401.2871704101564	103.3545913696289	-1192.9404296875	-360.3224182128907	97.55988311767581	-1111.27880859375	-467.2662658691407	55.03938674926759	-1158.284912109375	-249.8850708007813	56.57486724853517	-1150.995361328125	-246.609359741211	57.4969825744629	-1195.212158203125	-291.5565185546876	34.56833648681641	-1248.245971679688	-297.7563781738282	627.9771728515626	-711.9957275390626	-237.5904388427735	602.1912231445314	-700.9036865234376	-209.4803924560547	618.6161499023439	-705.3525390625001	-219.5616149902344	517.8410644531251	-707.5320434570314	-172.0679016113282	422.9252929687501	-692.3317871093751	-152.0440063476563	395.6513061523439	-803.7996826171877	-211.3702545166016	265.1215209960938	-694.6801147460939	-323.0944213867188	242.1173553466797	-675.7157592773439	-282.4378967285157	217.317855834961	-679.2517089843751	-290.5989379882813	165.1905670166016	-706.5268554687501	-398.9228820800782	94.63378143310548	-685.1647338867189	-367.8271789550782	96.37846374511722	-766.6019287109376	-465.6213378906251	50.50085449218751	-731.8942871093751	-245.9664611816407	50.72869110107423	-723.6926269531251	-248.8013763427735	55.36243438720705	-672.1255493164064	-295.9432067871094	37.24356842041016	-624.4833374023439	-4216.772460937501	853.3343505859377	-3945.061279296876	
